<?xml version="1.0" encoding="UTF-8"?>
<svg version="1.1" xmlns="http://www.w3.org/2000/svg" width="980" height="980">
<path d="M0 0 C323.4 0 646.8 0 980 0 C980 323.4 980 646.8 980 980 C656.6 980 333.2 980 0 980 C0 656.6 0 333.2 0 0 Z " fill="#818285" transform="translate(0,0)"/>
<path d="M0 0 C1.75689994 -0.00576172 1.75689994 -0.00576172 3.5492928 -0.01163983 C4.82689623 -0.01077335 6.10449965 -0.00990687 7.42081833 -0.00901413 C8.79910196 -0.01159965 10.17738484 -0.01461333 11.55566669 -0.01801753 C15.33829212 -0.02606951 19.12089856 -0.02787611 22.90353155 -0.028615 C26.98561325 -0.03046881 31.06768517 -0.03801803 35.1497612 -0.04475021 C44.0759483 -0.05832352 53.0021309 -0.06435733 61.92832661 -0.06876087 C67.50757886 -0.07152625 73.08682939 -0.07576426 78.66608047 -0.08026505 C94.12792095 -0.09245879 109.58976005 -0.10275634 125.05160522 -0.10614014 C126.04098376 -0.1063597 127.0303623 -0.10657927 128.049722 -0.10680549 C129.04141766 -0.10702377 130.03311331 -0.10724204 131.05486035 -0.10746694 C133.06427717 -0.1079104 135.07369399 -0.10835696 137.08311081 -0.10880661 C138.07984278 -0.10902804 139.07657474 -0.10924947 140.10351071 -0.10947761 C156.23144006 -0.1134203 172.35932407 -0.13085766 188.48723593 -0.15416613 C205.06479652 -0.17792992 221.64233441 -0.19034435 238.21991229 -0.19150805 C247.5196255 -0.19242225 256.81927971 -0.19810944 266.11897659 -0.21632767 C274.04322617 -0.23179696 281.96739854 -0.23680929 289.89166036 -0.22858956 C293.92832134 -0.22470644 297.96482718 -0.22549676 302.00146866 -0.23964691 C341.57686623 -0.37038755 341.57686623 -0.37038755 357.37705612 6.31892776 C358.11794479 6.62226028 358.85883347 6.9255928 359.62217331 7.23811722 C384.04905548 17.57439518 401.35346642 36.1083328 412.37705612 59.88142776 C420.43608211 79.83818014 421.02690326 100.37768622 416.06455612 121.13142776 C415.87119675 122.0067012 415.67783737 122.88197464 415.47861862 123.78377151 C412.27765388 136.27584822 405.15529252 148.24274995 397.06455612 158.13142776 C396.32721237 159.04408401 395.58986862 159.95674026 394.83018112 160.89705276 C378.97734556 179.44383424 355.96214995 189.88440088 332.06455612 193.13142776 C327.17898108 193.50178385 322.32785094 193.54254043 317.42982101 193.51910782 C316.03465375 193.52329507 314.6394899 193.5287801 313.24433219 193.53542763 C309.46143109 193.54971879 305.67875086 193.54568954 301.8958385 193.53826082 C297.79619422 193.53349043 293.69659512 193.54607285 289.59696579 193.55627823 C281.58530953 193.57339618 273.57373194 193.5743209 265.56206216 193.56906532 C259.04466515 193.5650094 252.52729124 193.56648399 246.00989532 193.57181358 C244.61383445 193.57293622 244.61383445 193.57293622 243.18957033 193.57408153 C241.29831203 193.57561314 239.40705374 193.57715149 237.51579545 193.5786965 C219.81575729 193.59239611 202.11576343 193.58700166 184.41572629 193.57551128 C168.25607693 193.5655808 152.0965421 193.57852092 135.93691041 193.60244548 C119.30478255 193.62688222 102.67270794 193.63643317 86.04056251 193.62979275 C76.71863274 193.62631078 67.39679099 193.62846478 58.07487488 193.64604378 C50.1398591 193.66082309 42.20499335 193.66132677 34.26998033 193.64397287 C30.22916356 193.63550753 26.18861415 193.63320263 22.14781189 193.64862442 C-10.37955402 193.76361859 -37.16825526 188.69163918 -61.93544388 166.13142776 C-64.4416683 163.58335544 -66.72476263 160.93773298 -68.93544388 158.13142776 C-69.433022 157.52041214 -69.93060013 156.90939651 -70.44325638 156.27986526 C-86.75605549 135.52588524 -93.42788579 110.43047 -90.43935013 84.32674026 C-89.16369441 74.72231201 -87.09227222 65.94433799 -82.93544388 57.13142776 C-82.6610347 56.53910355 -82.38662552 55.94677933 -82.10390091 55.33650589 C-74.93319098 40.09924278 -63.07848936 24.1906079 -47.93544388 16.13142776 C-47.27544388 16.13142776 -46.61544388 16.13142776 -45.93544388 16.13142776 C-45.93544388 15.47142776 -45.93544388 14.81142776 -45.93544388 14.13142776 C-31.3313517 6.73587193 -16.71944827 0.02066197 0 0 Z " fill="#FEFEFE" transform="translate(325.9354438781738,558.8685722351074)"/>
<path d="M0 0 C2.29201126 1.17619931 2.29201126 1.17619931 4.62109375 2.0078125 C15.36772137 6.52944833 25.64814662 13.44361829 34.33203125 21.1484375 C35.3065625 22.00308594 36.28109375 22.85773438 37.28515625 23.73828125 C62.39708489 46.0573546 77.61529009 74.1226693 83.33203125 107.1484375 C83.51894531 108.04949219 83.70585938 108.95054687 83.8984375 109.87890625 C87.68818843 138.45567675 81.89910991 168.84354921 68.33203125 194.1484375 C67.78933594 195.17710937 67.24664063 196.20578125 66.6875 197.265625 C62.30942102 205.16052152 56.99256432 212.14102518 51.33203125 219.1484375 C50.90720459 219.67550293 50.48237793 220.20256836 50.04467773 220.74560547 C47.74086851 223.56472319 45.42008863 226.16577303 42.64453125 228.5234375 C42.06316406 229.02617187 41.48179687 229.52890625 40.8828125 230.046875 C39.33203125 231.1484375 39.33203125 231.1484375 37.33203125 231.1484375 C37.03232422 231.98181641 37.03232422 231.98181641 36.7265625 232.83203125 C34.77182641 236.07897383 32.03840541 238.02004788 29.01953125 240.2109375 C28.36726562 240.6848291 27.715 241.1587207 27.04296875 241.64697266 C13.93583285 250.87242661 -0.32144853 257.65723918 -15.66796875 262.1484375 C-17.14901199 262.70597782 -18.62843929 263.26784925 -20.10546875 263.8359375 C-44.58773928 271.67026407 -74.58718785 268.46544836 -98.66796875 261.1484375 C-99.3532666 260.94589355 -100.03856445 260.74334961 -100.74462891 260.53466797 C-115.05138324 256.15935829 -129.0456649 247.41819042 -140.66796875 238.1484375 C-141.68632812 237.3440625 -142.7046875 236.5396875 -143.75390625 235.7109375 C-149.66942076 230.96102814 -154.93517561 226.07454173 -159.66796875 220.1484375 C-160.498125 219.16617188 -161.32828125 218.18390625 -162.18359375 217.171875 C-186.94670304 187.39734079 -195.84963814 151.35698973 -193.66796875 113.1484375 C-192.94312638 106.33138878 -191.47516198 99.75221046 -189.66796875 93.1484375 C-189.48073242 92.43945312 -189.29349609 91.73046875 -189.10058594 91 C-183.5611026 70.41110856 -172.99811123 49.11084043 -157.66796875 34.1484375 C-156.46140625 32.88966797 -156.46140625 32.88966797 -155.23046875 31.60546875 C-135.56399003 11.30942288 -108.95179154 -4.73996341 -80.66796875 -8.8515625 C-78.81751953 -9.15320313 -78.81751953 -9.15320313 -76.9296875 -9.4609375 C-51.85944751 -13.13096274 -22.99291992 -11.36972733 0 0 Z " fill="#FEFEFE" transform="translate(544.66796875,238.8515625)"/>
<path d="M0 0 C1.46366342 0.39753821 2.9208935 0.81881384 4.375 1.25 C5.18710937 1.48203125 5.99921875 1.7140625 6.8359375 1.953125 C9 3 9 3 11 7 C5.06 5.515 5.06 5.515 -1 4 C-1 1 -1 1 0 0 Z " fill="#88878C" transform="translate(293,744)"/>
<path d="M0 0 C0 3 0 3 -2.4375 5.5 C-3.283125 6.325 -4.12875 7.15 -5 8 C-5.33 8.99 -5.66 9.98 -6 11 C-8.4375 12.75 -8.4375 12.75 -11 14 C-11.66 13.67 -12.32 13.34 -13 13 C-8.71 8.71 -4.42 4.42 0 0 Z " fill="#E6E7E8" transform="translate(398,262)"/>
<path d="M0 0 C0.33 0.66 0.66 1.32 1 2 C-0.32 3.32 -1.64 4.64 -3 6 C-1.125 1.125 -1.125 1.125 0 0 Z M-4 6 C-3.01 6.66 -2.02 7.32 -1 8 C-1.33 8.66 -1.66 9.32 -2 10 C-5.0625 10.625 -5.0625 10.625 -8 11 C-6.68 9.35 -5.36 7.7 -4 6 Z " fill="#929293" transform="translate(728,709)"/>
<path d="M0 0 C1.32 0.33 2.64 0.66 4 1 C4 2.32 4 3.64 4 5 C4.66 5.33 5.32 5.66 6 6 C5.01 6.33 4.02 6.66 3 7 C1.35 5.35 -0.3 3.7 -2 2 C-1.01 2 -0.02 2 1 2 C0.67 1.34 0.34 0.68 0 0 Z " fill="#8D8D90" transform="translate(713,580)"/>
<path d="M0 0 C0.66 0.33 1.32 0.66 2 1 C1.67 2.65 1.34 4.3 1 6 C-1.64 6.66 -4.28 7.32 -7 8 C-6.21625 7.236875 -5.4325 6.47375 -4.625 5.6875 C-1.92742283 3.09108195 -1.92742283 3.09108195 0 0 Z " fill="#919195" transform="translate(582,470)"/>
<path d="M0 0 C0.66 0.99 1.32 1.98 2 3 C0.625 6.6875 0.625 6.6875 -1 10 C-1.99 9.67 -2.98 9.34 -4 9 C-2.68 6.03 -1.36 3.06 0 0 Z " fill="#898A8D" transform="translate(615,427)"/>
<path d="M0 0 C0.99 0 1.98 0 3 0 C1.52307692 5.66153846 1.52307692 5.66153846 -1.125 7.375 C-2.053125 7.684375 -2.053125 7.684375 -3 8 C-1.125 2.25 -1.125 2.25 0 0 Z " fill="#8C8D91" transform="translate(739,688)"/>
<path d="M0 0 C0.66 0.66 1.32 1.32 2 2 C0.02 4.97 0.02 4.97 -2 8 C-2.66 6.68 -3.32 5.36 -4 4 C-2.68 2.68 -1.36 1.36 0 0 Z " fill="#F3F4F5" transform="translate(600,448)"/>
<path d="M0 0 C1.98 0.495 1.98 0.495 4 1 C4 2.65 4 4.3 4 6 C3.01 6.495 3.01 6.495 2 7 C2 6.34 2 5.68 2 5 C1.01 4.67 0.02 4.34 -1 4 C-0.34 3.34 0.32 2.68 1 2 C0.67 1.34 0.34 0.68 0 0 Z " fill="#8A8B8D" transform="translate(721,588)"/>
<path d="M0 0 C3.94727588 -0.17942163 6.5980513 -0.09350689 10 2 C10 2.66 10 3.32 10 4 C6.7 3.01 3.4 2.02 0 1 C0 0.67 0 0.34 0 0 Z " fill="#939395" transform="translate(680,564)"/>
<path d="M0 0 C0.66 0.66 1.32 1.32 2 2 C1.625 4.625 1.625 4.625 1 7 C0.01 7 -0.98 7 -2 7 C-1.34 4.69 -0.68 2.38 0 0 Z " fill="#908F93" transform="translate(618,420)"/>
<path d="M0 0 C0 3 0 3 -1.5 4.6875 C-1.995 5.120625 -2.49 5.55375 -3 6 C-3.99 5.67 -4.98 5.34 -6 5 C-2.25 1.125 -2.25 1.125 0 0 Z " fill="#898989" transform="translate(424,241)"/>
</svg>
